# xmcd CD database file
#
# Track frame offsets:
#	150
#	19215
#	36148
#	50913
#	68490
#	83710
#	103588
#	122653
#	139128
#	152068
#	168495
#	186433
#	205180
#
# Disc length: 2993 seconds
#
# Revision: 4
# Processed by: cddbd v1.5.2PL0 Copyright (c) Steve Scherf et al.
# Submitted via: CDex 1.51
#
DISCID=b30baf0d
DTITLE=Cats - Greatest Hits
DYEAR=1900
DGENRE=Pop
TTITLE0=One Way Wind
TTITLE1=Darling Oh Darling
TTITLE2=Save the Last Dance
TTITLE3=Samaina
TTITLE4=Second Pair of Eyes
TTITLE5=Vaya Con Dios
TTITLE6=A Love Like Yours
TTITLE7=Let's Follow the Sun
TTITLE8=Love Is a Golden Ring
TTITLE9=Be My Day
TTITLE10=Country Woman
TTITLE11=Kansas City
TTITLE12=End of the Show
EXTD=
EXTT0=
EXTT1=
EXTT2=
EXTT3=
EXTT4=
EXTT5=
EXTT6=
EXTT7=
EXTT8=
EXTT9=
EXTT10=
EXTT11=
EXTT12=
PLAYORDER=
